ffmpeg started on 2016-12-12 at 05:37:09
Report written to "Output/theora/results/ffmpeg/Told_town_cross_2160p505000k.log"
Command line:
Tools/ffmpeg/ffmpeg -i Output/theora/encoded/old_town_cross_2160p505000k.mkv -c:v rawvideo -pix_fmt yuv420p Output/theora/transcoded/old_town_cross_2160p505000k.yuv
ffmpeg version N-82227-gdb23fde Copyright (c) 2000-2016 the FFmpeg developers
  built with gcc 5.4.0 (Ubuntu 5.4.0-6ubuntu1~16.04.2) 20160609
  configuration: --prefix=/home/jaroslav/ffmpeg_build --pkg-config-flags=--static --extra-cflags=-I/home/jaroslav/ffmpeg_build/include --extra-ldflags=-L/home/jaroslav/ffmpeg_build/lib --bindir=/home/jaroslav/bin --enable-gpl --enable-libass --enable-libfdk-aac --enable-libfreetype --enable-libmp3lame --enable-libopus --enable-libtheora --enable-libvorbis --enable-libvpx --enable-libx264 --enable-libx265 --enable-nvenc --enable-libmfx --enable-libxvid --enable-libgsm --enable-libopencore-amrnb --enable-version3 --enable-nonfree
  libavutil      55. 35.100 / 55. 35.100
  libavcodec     57. 66.101 / 57. 66.101
  libavformat    57. 57.100 / 57. 57.100
  libavdevice    57.  2.100 / 57.  2.100
  libavfilter     6. 66.100 /  6. 66.100
  libswscale      4.  3.100 /  4.  3.100
  libswresample   2.  4.100 /  2.  4.100
  libpostproc    54.  2.100 / 54.  2.100
Input #0, matroska,webm, from 'Output/theora/encoded/old_town_cross_2160p505000k.mkv':
  Metadata:
    ENCODER         : Lavf57.57.100
  Duration: 00:00:10.00, start: 0.000000, bitrate: 5465 kb/s
    Stream #0:0: Video: theora, yuv420p(progressive), 3840x2160 [SAR 1:1 DAR 16:9], 50 fps, 50 tbr, 1k tbn, 50 tbc (default)
    Metadata:
      ENCODER         : Lavc57.66.101 libtheora
      DURATION        : 00:00:10.000000000
Output #0, rawvideo, to 'Output/theora/transcoded/old_town_cross_2160p505000k.yuv':
  Metadata:
    encoder         : Lavf57.57.100
    Stream #0:0: Video: rawvideo (I420 / 0x30323449), yuv420p, 3840x2160 [SAR 1:1 DAR 16:9], q=2-31, 200 kb/s, 50 fps, 50 tbn, 50 tbc (default)
    Metadata:
      DURATION        : 00:00:10.000000000
      encoder         : Lavc57.66.101 rawvideo
Stream mapping:
  Stream #0:0 -> #0:0 (theora (native) -> rawvideo (native))
Press [q] to stop, [?] for help
frame=   17 fps=0.0 q=-0.0 size=  206550kB time=00:00:00.34 bitrate=4976640.0kbits/s speed=0.663x    frame=   34 fps= 33 q=-0.0 size=  413100kB time=00:00:00.68 bitrate=4976640.0kbits/s speed=0.665x    frame=   51 fps= 33 q=-0.0 size=  619650kB time=00:00:01.02 bitrate=4976640.0kbits/s speed=0.665x    frame=   68 fps= 33 q=-0.0 size=  826200kB time=00:00:01.36 bitrate=4976640.0kbits/s speed=0.666x    frame=   83 fps= 32 q=-0.0 size= 1008450kB time=00:00:01.66 bitrate=4976640.0kbits/s speed=0.646x    frame=  100 fps= 32 q=-0.0 size= 1215000kB time=00:00:02.00 bitrate=4976640.0kbits/s speed=0.649x    frame=  117 fps= 33 q=-0.0 size= 1421550kB time=00:00:02.34 bitrate=4976640.0kbits/s dup=1 drop=0 speed=0.652x    frame=  141 fps= 34 q=-0.0 size= 1713150kB time=00:00:02.82 bitrate=4976640.0kbits/s dup=15 drop=0 speed=0.689x    frame=  153 fps= 33 q=-0.0 size= 1858950kB time=00:00:03.06 bitrate=4976640.0kbits/s dup=22 drop=0 speed=0.657x    frame=  176 fps= 34 q=-0.0 size= 2138400kB time=00:00:03.52 bitrate=4976640.0kbits/s dup=35 drop=0 speed=0.681x    frame=  188 fps= 33 q=-0.0 size= 2284200kB time=00:00:03.76 bitrate=4976640.0kbits/s dup=42 drop=0 speed=0.658x    frame=  212 fps= 34 q=-0.0 size= 2575800kB time=00:00:04.24 bitrate=4976640.0kbits/s dup=57 drop=0 speed=0.678x    frame=  226 fps= 33 q=-0.0 size= 2745900kB time=00:00:04.52 bitrate=4976640.0kbits/s dup=65 drop=0 speed=0.66x    frame=  250 fps= 33 q=-0.0 size= 3037500kB time=00:00:05.00 bitrate=4976640.0kbits/s dup=80 drop=0 speed=0.65x    frame=  273 fps= 33 q=-0.0 size= 3316950kB time=00:00:05.46 bitrate=4976640.0kbits/s dup=95 drop=0 speed=0.665x    frame=  288 fps= 32 q=-0.0 size= 3499200kB time=00:00:05.76 bitrate=4976640.0kbits/s dup=105 drop=0 speed=0.634x    frame=  301 fps= 31 q=-0.0 size= 3657150kB time=00:00:06.02 bitrate=4976640.0kbits/s dup=113 drop=0 speed=0.627x    frame=  323 fps= 31 q=-0.0 size= 3924450kB time=00:00:06.46 bitrate=4976640.0kbits/s dup=129 drop=0 speed=0.624x    frame=  337 fps= 31 q=-0.0 size= 4094550kB time=00:00:06.74 bitrate=4976640.0kbits/s dup=138 drop=0 speed=0.616x    frame=  355 fps= 31 q=-0.0 size= 4313250kB time=00:00:07.10 bitrate=4976640.0kbits/s dup=152 drop=0 speed=0.619x    frame=  361 fps= 30 q=-0.0 size= 4386150kB time=00:00:07.22 bitrate=4976640.0kbits/s dup=155 drop=0 speed=0.603x    frame=  380 fps= 30 q=-0.0 size= 4617000kB time=00:00:07.60 bitrate=4976640.0kbits/s dup=169 drop=0 speed=0.608x    frame=  395 fps= 30 q=-0.0 size= 4799250kB time=00:00:07.90 bitrate=4976640.0kbits/s dup=179 drop=0 speed=0.597x    frame=  418 fps= 30 q=-0.0 size= 5078700kB time=00:00:08.36 bitrate=4976640.0kbits/s dup=195 drop=0 speed=0.602x    frame=  440 fps= 31 q=-0.0 size= 5346000kB time=00:00:08.80 bitrate=4976640.0kbits/s dup=211 drop=0 speed=0.611x    frame=  455 fps= 30 q=-0.0 size= 5528250kB time=00:00:09.10 bitrate=4976640.0kbits/s dup=222 drop=0 speed=0.608x    frame=  477 fps= 31 q=-0.0 size= 5795550kB time=00:00:09.54 bitrate=4976640.0kbits/s dup=238 drop=0 speed=0.616x    frame=  489 fps= 30 q=-0.0 size= 5941350kB time=00:00:09.78 bitrate=4976640.0kbits/s dup=246 drop=0 speed=0.609x    frame=  493 fps= 30 q=-0.0 Lsize= 5989950kB time=00:00:09.86 bitrate=4976640.0kbits/s dup=248 drop=0 speed=0.608x    
video:5989950kB audio:0kB subtitle:0kB other streams:0kB global headers:0kB muxing overhead: 0.000000%
